<?xml version="1.0" standalone="no"?>
<!DOCTYPE svg PUBLIC "-//W3C//DTD SVG 20010904//EN"
 "http://www.w3.org/TR/2001/REC-SVG-20010904/DTD/svg10.dtd">
<svg version="1.0" xmlns="http://www.w3.org/2000/svg"
 width="500.000000pt" height="500.000000pt" viewBox="0 0 500.000000 500.000000"
 preserveAspectRatio="xMidYMid meet">
<metadata>
Created by potrace 1.14, written by Peter Selinger 2001-2017
</metadata>
<g transform="translate(0.000000,500.000000) scale(0.100000,-0.100000)"
fill="#000000" stroke="none">
<path d="M0 2500 l0 -2500 2500 0 2500 0 0 2500 0 2500 -2500 0 -2500 0 0
-2500z m2269 810 c96 -11 139 -32 164 -80 33 -62 18 -220 -87 -970 -126 -900
-128 -911 -163 -978 -33 -64 -69 -87 -159 -102 -34 -6 -343 -10 -716 -10 -527
0 -658 3 -658 13 0 31 62 261 79 295 11 20 33 50 49 66 54 51 103 56 559 56
248 0 422 4 438 10 31 12 52 58 61 134 l7 56 -464 0 c-306 0 -477 4 -504 11
-21 6 -55 27 -73 45 l-35 35 6 117 c8 173 135 1061 164 1148 33 101 81 138
197 154 88 11 1036 12 1135 0z m1898 -23 c47 -25 63 -63 63 -151 0 -118 -134
-1084 -164 -1182 -20 -65 -47 -99 -99 -126 -37 -19 -62 -23 -194 -26 -84 -2
-153 0 -153 4 0 11 139 1001 146 1042 l6 32 -326 0 -326 0 -14 -22 c-9 -14
-36 -175 -71 -417 -68 -482 -77 -524 -133 -584 -44 -46 -103 -57 -316 -57
l-191 1 51 47 c28 26 59 59 68 73 12 18 39 191 96 600 44 316 89 603 100 639
12 43 30 76 49 94 57 54 70 55 751 53 576 -2 628 -3 657 -20z"/>
<path d="M1332 2867 c-13 -15 -31 -121 -67 -397 -14 -107 -28 -205 -30 -217
l-5 -23 320 0 c301 0 321 1 339 19 22 22 20 11 69 364 l38 267 -327 0 c-258 0
-329 -3 -337 -13z"/>
</g>
</svg>
